<svg width="104" height="64" viewBox="0 0 104 64" fill="none" xmlns="http://www.w3.org/2000/svg">
<rect width="104" height="64" rx="12" fill="#FACD5D" fill-opacity="0.1"/>
<path fill-rule="evenodd" clip-rule="evenodd" d="M62.84 27L54.82 19H46V23H53.18L57.18 27H41C36 27 32 31 32 36C32 41 36 45 41 45C45.44 45 49.12 41.76 49.84 37.54L54.08 35C54 35.34 54 35.66 54 36C54 41 58 45 63 45C68 45 72 41 72 36C72 31 68 27 63 27H62.84ZM45.68 37.52C45 39.54 43.16 41 40.94 41C38.18 41 35.94 38.76 35.94 36C35.94 33.24 38.18 31 40.94 31C43.18 31 45 32.48 45.68 34.5H40V37.5L45.68 37.52ZM57.94 36C57.94 38.76 60.18 41 62.94 41C65.7014 41 67.94 38.7614 67.94 36C67.94 33.2386 65.7014 31 62.94 31C60.18 31 57.94 33.24 57.94 36Z" fill="#FACD5D"/>
</svg>
